<svg xmlns="http://www.w3.org/2000/svg" xmlns:xlink="http://www.w3.org/1999/xlink" viewBox="0 0 32 32" width="22" height="22" style="" filter="none">
    
    <g>
    <path d="M8 5.333v21.333h16v-21.333h-16zM6.667 2.667h18.667c0.736 0 1.333 0.597 1.333 1.333v0 24c0 0.736-0.597 1.333-1.333 1.333v0h-18.667c-0.736 0-1.333-0.597-1.333-1.333v0-24c0-0.736 0.597-1.333 1.333-1.333v0zM16 22.667c0.736 0 1.333 0.597 1.333 1.333s-0.597 1.333-1.333 1.333v0c-0.736 0-1.333-0.597-1.333-1.333s0.597-1.333 1.333-1.333v0z" fill="rgba(64,149,229,1)"></path>
    </g>
  </svg>