<svg xmlns="http://www.w3.org/2000/svg" xmlns:xlink="http://www.w3.org/1999/xlink" viewBox="0 0 32 32" width="22" height="22" style="" filter="none">
    
    <g>
    <path d="M16 1.333l10.956 2.435c0.602 0.137 1.044 0.668 1.044 1.301v0 13.316c-0 2.764-1.402 5.201-3.534 6.638l-0.028 0.018-8.437 5.625-8.437-5.625c-2.16-1.455-3.562-3.891-3.563-6.655v-13.317c0-0.634 0.442-1.164 1.035-1.3l0.009-0.002 10.956-2.435zM16 4.065l-9.333 2.073v12.247c0 1.843 0.935 3.467 2.356 4.425l0.019 0.012 6.959 4.64 6.959-4.64c1.44-0.97 2.374-2.594 2.375-4.436v-12.248l-9.333-2.072zM16 9.333c0 0 0.001 0 0.001 0 1.473 0 2.667 1.194 2.667 2.667 0 0.982-0.531 1.84-1.321 2.303l-0.013 0.007-0.001 5.691h-2.667v-5.691c-0.803-0.47-1.333-1.328-1.333-2.309 0-1.473 1.194-2.667 2.667-2.667v0z" fill="rgba(64,149,229,1)"></path>
    </g>
  </svg>