<svg xmlns="http://www.w3.org/2000/svg" xmlns:xlink="http://www.w3.org/1999/xlink" viewBox="0 0 32 32" width="22.73" height="21.61" style="" filter="drop-shadow(0px 0px 0px rgba(0,0,0,0.4))">
    
    <g>
    <path d="M7.2 6c0.8-0.6 1.8-1.2 2.8-1.6-0.6-0.2-1.2-0.4-2-0.4-3.4 0-6 2.6-6 6 0 1 0.2 1.8 0.6 2.8 0.4-1 0.8-2 1.4-3 0.8-1.4 2-2.6 3.2-3.8zM24 4c-0.8 0-1.4 0.2-2 0.4 1 0.4 2 1 2.8 1.8 1.2 1 2.4 2.2 3.2 3.6 0.6 1 1 1.8 1.4 3 0.4-1 0.6-1.8 0.6-2.8 0-3.4-2.6-6-6-6z" fill="rgba(64,149,229,1)"></path><path d="M28 17c0-6.6-5.4-12-12-12s-12 5.4-12 12c0 3.8 1.8 7.2 4.6 9.4l-1.6 3 1.8 0.8 1.4-2.8c1.8 1 3.8 1.6 5.8 1.6s4-0.6 5.6-1.4l1.4 2.8 1.8-0.8-1.6-3c3-2.4 4.8-5.8 4.8-9.6zM6 17c0-5.6 4.4-10 10-10s10 4.4 10 10-4.4 10-10 10-10-4.4-10-10z" fill="rgba(64,149,229,1)"></path><path d="M16 10h-2v8h8v-2h-6z" fill="rgba(64,149,229,1)"></path>
    </g>
  </svg>